:SAMPLES-PER-SECOND 30
:FULLY-SPECIFIED
:DEGREES
794
root  -60.6633 40.1994 -0.415588 -115.407 -87.0955 106.766
RightUpLeg  -7.23335 -6.57462 -3.56926
RightLeg  9.33107 10.4364 0.64334
RightFoot  5.51893 0.0543334 -0.0845803
RightToes  2.21189e-009 0 -3.6325e-017
Spine  4.31128 -0.380383 6.30834
Spine1  8.45029 1.8627 -7.94456
HEad  -5.38542 0.375732 -1.08356
LeftShoulder1  2.43778 -5.4692 -20.7586
LeftArm  -7.73584 -60.7514 -37.9059
LeftForeArm  -15.0892 -9.4241 -8.71038
LeftHand  0.0174186 8.46955 2.29356
RightShoulder  1.03889 1.19133 15.4359
RightArm  5.08614 66.4058 53.7709
RightForeArm  -37.4762 -3.72649 6.01869
RightHand  -0.962444 9.68707 -7.78371
LeftUpLeg  -1.50264 5.61901 -3.24484
LeftLeg  15.3085 -4.78339 -1.35306
LeftFoot  -3.49317 -0.418886 6.36869
LeftToes  -3.01956e-010 3.07132e-011 1.04116e-011
795
root  -61.1463 40.0175 -0.545318 -105.894 -88.3114 97.2916
RightUpLeg  -7.5834 -7.24086 -2.89747
RightLeg  11.957 10.1931 1.99011
RightFoot  3.02771 -0.0652286 0.661772
RightToes  2.21189e-009 0 -3.6325e-017
Spine  5.00601 -0.601898 9.43187
Spine1  8.33282 2.0762 -9.03312
HEad  -6.47241 0.602585 -1.88046
LeftShoulder1  2.51526 -5.80367 -20.6313
LeftArm  -8.79879 -61.3144 -38.4627
LeftForeArm  -14.6115 -8.34667 -8.21177
LeftHand  0.0082664 9.13082 1.68292
RightShoulder  1.10494 1.64189 14.6826
RightArm  3.90553 67.1517 52.81
RightForeArm  -37.0758 -5.14433 5.69706
RightHand  -0.884467 10.0809 -7.01076
LeftUpLeg  -4.65239 4.89168 -1.89454
LeftLeg  22.7968 -4.52761 -1.74999
LeftFoot  -5.20599 -0.22691 4.85217
LeftToes  -3.01956e-010 3.07132e-011 1.04116e-011
796
root  -61.5496 39.905 -0.77193 -42.5337 -88.4648 34.2388
RightUpLeg  -7.97142 -8.0622 -2.23589
RightLeg  13.9045 8.98613 2.62838
RightFoot  1.62021 0.0624931 -0.461053
RightToes  2.21189e-009 0 -3.6325e-017
Spine  5.49513 -0.999564 10.1401
Spine1  8.16141 1.52194 -7.87777
HEad  -7.62959 0.576752 -1.84843
LeftShoulder1  2.60165 -6.36222 -19.9123
LeftArm  -8.64141 -61.8008 -39.1055
LeftForeArm  -14.3204 -7.0974 -8.14183
LeftHand  -0.00626484 8.09602 1.54109
RightShoulder  1.10784 1.62527 14.846
RightArm  3.66796 68.0809 51.6763
RightForeArm  -36.6134 -5.9554 5.90771
RightHand  -0.778876 9.50196 -6.44859
LeftUpLeg  -8.69128 4.73901 -0.405944
LeftLeg  30.5575 -6.06213 -3.5576
LeftFoot  -4.25582 -0.0850895 1.83092
LeftToes  -3.01956e-010 3.07132e-011 1.04116e-011
797
root  -61.9298 39.7688 -1.00764 0.569702 -86.7582 -8.50916
RightUpLeg  -8.5097 -8.20591 -1.13254
RightLeg  15.8516 6.93646 2.66242
RightFoot  0.282104 0.165023 -1.58838
RightToes  2.21189e-009 0 -3.6325e-017
Spine  5.86068 -1.37624 10.1977
Spine1  8.00301 0.627547 -5.27718
HEad  -8.38879 0.16095 -1.83391
LeftShoulder1  2.69086 -6.42706 -20.7027
LeftArm  -8.43125 -62.706 -39.5128
LeftForeArm  -13.7453 -6.15232 -8.06101
LeftHand  -0.00880803 8.33528 1.35658
RightShoulder  1.13813 1.96367 13.9584
RightArm  2.46744 68.1494 50.7416
RightForeArm  -36.7586 -5.85565 5.76821
RightHand  -0.765102 9.62765 -6.28949
LeftUpLeg  -12.7486 4.37025 1.51072
LeftLeg  37.6245 -7.8941 -6.09429
LeftFoot  -2.27223 0.214685 -2.41846
LeftToes  -3.01956e-010 3.07132e-011 1.04116e-011
798
root  -62.2953 39.7133 -1.21057 7.75305 -85.551 -15.469
RightUpLeg  -8.32428 -8.35112 -0.392478
RightLeg  16.4731 5.85274 2.84223
RightFoot  -0.947795 0.146416 -1.68165
RightToes  2.21189e-009 0 -3.6325e-017
Spine  6.2579 -1.72576 11.1825
Spine1  8.1168 0.388975 -5.29847
HEad  -9.3177 -0.0579987 -1.07195
LeftShoulder1  2.69136 -6.85298 -19.5053
LeftArm  -8.67786 -62.9193 -39.4692
LeftForeArm  -14.315 -5.92583 -7.931
LeftHand  -0.010001 8.05215 1.39198
RightShoulder  1.11987 1.75927 14.4673
RightArm  2.64838 68.7973 50.5068
RightForeArm  -37.4274 -5.88039 6.06039
RightHand  -0.808553 9.88362 -6.52786
LeftUpLeg  -15.6219 4.01436 2.9467
LeftLeg  41.8478 -7.36781 -6.63591
LeftFoot  -0.0143912 0.558979 -5.71743
LeftToes  -3.01956e-010 3.07132e-011 1.04116e-011
799
root  -62.6323 39.7318 -1.36243 7.80884 -85.3625 -15.435
RightUpLeg  -7.87216 -8.58592 -0.273434
RightLeg  16.6043 5.86862 3.13233
RightFoot  -1.61348 0.163779 -2.05007
RightToes  2.21189e-009 0 -3.6325e-017
Spine  6.86069 -1.63594 11.5009
Spine1  8.18061 0.523418 -5.15771
HEad  -9.86043 -0.269104 -0.756958
LeftShoulder1  2.70888 -6.98096 -19.3472
LeftArm  -8.78436 -63.0506 -39.6496
LeftForeArm  -14.3535 -6.06948 -7.80566
LeftHand  -4.45095e-005 8.01718 1.79952
RightShoulder  1.17489 2.14724 13.9501
RightArm  1.60653 68.5617 49.5771
RightForeArm  -37.1 -5.85529 5.84009
RightHand  -0.726082 10.2578 -5.77231
LeftUpLeg  -16.7151 4.19707 3.66016
LeftLeg  41.9274 -6.14132 -5.5239
LeftFoot  0.033366 0.473017 -4.74813
LeftToes  -3.01956e-010 3.07132e-011 1.04116e-011
800
root  -62.9742 39.8657 -1.53126 2.31769 -85.3673 -9.16705
RightUpLeg  -7.69647 -8.44557 -0.441977
RightLeg  15.7219 5.7091 2.99593
RightFoot  -1.59415 0.192609 -2.38334
RightToes  2.21189e-009 0 -3.6325e-017
Spine  7.07351 -1.29644 10.6474
Spine1  7.57078 0.539597 -4.35054
HEad  -10.4012 -0.356415 -1.0143
LeftShoulder1  2.78382 -6.92154 -20.2774
LeftArm  -8.74544 -63.0568 -39.522
LeftForeArm  -13.8149 -6.08433 -7.88646
LeftHand  -0.0137276 7.74833 1.31555
RightShoulder  1.2413 2.69665 13.0626
RightArm  0.916796 67.9302 48.9977
RightForeArm  -37.5602 -5.81433 5.69817
RightHand  -0.778952 10.3682 -6.12558
LeftUpLeg  -17.0634 4.11223 3.76602
LeftLeg  38.4274 -4.94185 -3.83313
LeftFoot  -1.30908 0.368792 -4.09658
LeftToes  -3.01956e-010 3.07132e-011 1.04116e-011
801
root  -63.294 40.0277 -1.65187 -4.86505 -85.355 -1.17712
RightUpLeg  -7.40762 -8.48577 -0.885365
RightLeg  14.5034 5.7994 2.92941
RightFoot  -1.36634 0.220184 -2.62733
RightToes  2.21189e-009 0 -3.6325e-017
Spine  7.11209 -1.29998 10.2884
Spine1  7.36276 0.595061 -5.09675
HEad  -11.286 -0.445206 -0.761902
LeftShoulder1  2.76583 -7.08983 -19.6377
LeftArm  -9.55195 -62.8149 -38.8364
LeftForeArm  -14.1124 -6.05489 -7.64867
LeftHand  -0.0101893 7.98962 1.39743
RightShoulder  1.25548 2.67642 13.3996
RightArm  1.12365 68.064 49.3772
RightForeArm  -37.2082 -5.81463 5.62294
RightHand  -0.727576 10.2503 -5.78934
LeftUpLeg  -16.3233 2.80963 3.66135
LeftLeg  32.2528 -4.98334 -3.04139
LeftFoot  -2.7781 0.245233 -3.0652
LeftToes  -3.01956e-010 3.07132e-011 1.04116e-011
